# xmcd
#
# Track frame offsets: 
#        150
#        15091
#        34166
#        46381
#        63419
#        83326
#        101509
#        117432
#        134520
#        149356
#
# Disc length: 2227 seconds
#
# Revision: 0
# Processed by: cddbd v1.5.1PL2 Copyright (c) Steve Scherf et al.
# Submitted via: ExactAudioCopy v0.95b4
#
DISCID=7c08b10a
DTITLE=น้องใหม่ เมืองชุมแพ - จีบหนุ่มเขมร
DYEAR=1900
DGENRE=Country
TTITLE0=จีบหนุ่มเขมร
TTITLE1=ห้องน้ำชั่วคราว
TTITLE2=ผัวชั่วตอนแก่
TTITLE3=หัวใจสลาย
TTITLE4=สาวเลยยังรอ
TTITLE5=ลูกอีสาน
TTITLE6=หลอกน้องให้คอย
TTITLE7=ห่วงพี่
TTITLE8=เอกอีสาน
TTITLE9=ฮักอ้ายได้แค่รูป
EXTD=
EXTT0=
EXTT1=
EXTT2=
EXTT3=
EXTT4=
EXTT5=
EXTT6=
EXTT7=
EXTT8=
EXTT9=
PLAYORDER=
